<svg height="200px" width="200px" version="1.1" id="Layer_1" xmlns="http://www.w3.org/2000/svg" xmlns:xlink="http://www.w3.org/1999/xlink" viewBox="0 0 512 512" xml:space="preserve" fill="#000000"><g id="SVGRepo_bgCarrier" stroke-width="0"></g><g id="SVGRepo_tracerCarrier" stroke-linecap="round" stroke-linejoin="round"></g><g id="SVGRepo_iconCarrier"> <circle style="fill:#212531;" cx="256" cy="256" r="256"></circle> <path style="fill:#1c1c21;" d="M146.884,390.418l121.287,121.287c124.892-5.846,226.383-101.176,241.798-223.33L334.684,115.219 l-7.315,28.555l-29.534-28.482l-1.693,35.119l-33.473-33.473l-2.87,34.542l-34.644-35.159l-3.058,33.659l-34.157-33.908 l-5.853,42.743L146.884,390.418z"></path> <path style="fill:#FEE187;" d="M163.195,398.222h185.608c11.583,0,20.975-9.39,20.975-20.975V163.195 c0-11.583-9.39-20.973-20.975-20.973H163.195c-11.583,0-20.973,9.39-20.973,20.973v214.052 C142.222,388.832,151.612,398.222,163.195,398.222z"></path> <path style="fill:#FFC61B;" d="M348.803,142.222h-93.379v256h93.379c11.583,0,20.975-9.39,20.975-20.975v-214.05 C369.778,151.612,360.388,142.222,348.803,142.222z"></path> <g> <path style="fill:#FFFFFF;" d="M182.088,170.667L182.088,170.667c-4.76,0-8.62-3.86-8.62-8.62v-39.65c0-4.76,3.86-8.62,8.62-8.62 l0,0c4.76,0,8.62,3.86,8.62,8.62v39.65C190.707,166.807,186.847,170.667,182.088,170.667z"></path> <path style="fill:#FFFFFF;" d="M219.045,170.667L219.045,170.667c-4.76,0-8.62-3.86-8.62-8.62v-39.65c0-4.76,3.86-8.62,8.62-8.62 l0,0c4.76,0,8.62,3.86,8.62,8.62v39.65C227.664,166.807,223.804,170.667,219.045,170.667z"></path> <path style="fill:#FFFFFF;" d="M256,170.667L256,170.667c-4.76,0-8.62-3.86-8.62-8.62v-39.65c0-4.76,3.86-8.62,8.62-8.62l0,0 c4.76,0,8.62,3.86,8.62,8.62v39.65C264.62,166.807,260.76,170.667,256,170.667z"></path> </g> <g> <path style="fill:#D0D1D3;" d="M256,113.778c-0.197,0-0.381,0.045-0.574,0.059v56.773c0.193,0.012,0.378,0.057,0.574,0.057 c4.76,0,8.62-3.86,8.62-8.62v-39.65C264.62,117.638,260.76,113.778,256,113.778z"></path> <path style="fill:#D0D1D3;" d="M292.957,170.667L292.957,170.667c-4.76,0-8.62-3.86-8.62-8.62v-39.65c0-4.76,3.86-8.62,8.62-8.62 l0,0c4.76,0,8.62,3.86,8.62,8.62v39.65C301.577,166.807,297.717,170.667,292.957,170.667z"></path> <path style="fill:#D0D1D3;" d="M329.912,170.667L329.912,170.667c-4.76,0-8.62-3.86-8.62-8.62v-39.65c0-4.76,3.86-8.62,8.62-8.62 l0,0c4.76,0,8.62,3.86,8.62,8.62v39.65C338.532,166.807,334.672,170.667,329.912,170.667z"></path> </g> <g> <path style="fill:#EAA22F;" d="M341.333,345.643H170.667c-2.381,0-4.31-1.929-4.31-4.31s1.929-4.31,4.31-4.31h170.667 c2.381,0,4.31,1.929,4.31,4.31S343.714,345.643,341.333,345.643z"></path> <path style="fill:#EAA22F;" d="M341.333,317.199H170.667c-2.381,0-4.31-1.929-4.31-4.31s1.929-4.31,4.31-4.31h170.667 c2.381,0,4.31,1.929,4.31,4.31S343.714,317.199,341.333,317.199z"></path> <path style="fill:#EAA22F;" d="M341.333,288.754H170.667c-2.381,0-4.31-1.929-4.31-4.31s1.929-4.31,4.31-4.31h170.667 c2.381,0,4.31,1.929,4.31,4.31S343.714,288.754,341.333,288.754z"></path> <path style="fill:#EAA22F;" d="M341.333,260.31H170.667c-2.381,0-4.31-1.929-4.31-4.31s1.929-4.31,4.31-4.31h170.667 c2.381,0,4.31,1.929,4.31,4.31S343.714,260.31,341.333,260.31z"></path> <path style="fill:#EAA22F;" d="M341.333,231.865H170.667c-2.381,0-4.31-1.929-4.31-4.31c0-2.381,1.929-4.31,4.31-4.31h170.667 c2.381,0,4.31,1.929,4.31,4.31C345.643,229.936,343.714,231.865,341.333,231.865z"></path> </g> <g> <path style="fill:#E09112;" d="M341.333,337.024h-85.907v8.62h85.907c2.381,0,4.31-1.929,4.31-4.31 S343.714,337.024,341.333,337.024z"></path> <path style="fill:#E09112;" d="M341.333,308.579h-85.907v8.62h85.907c2.381,0,4.31-1.929,4.31-4.31 S343.714,308.579,341.333,308.579z"></path> <path style="fill:#E09112;" d="M341.333,280.135h-85.907v8.62h85.907c2.381,0,4.31-1.929,4.31-4.31 S343.714,280.135,341.333,280.135z"></path> <path style="fill:#E09112;" d="M341.333,251.69h-85.907v8.62h85.907c2.381,0,4.31-1.929,4.31-4.31S343.714,251.69,341.333,251.69z"></path> <path style="fill:#E09112;" d="M341.333,223.246h-85.907v8.62h85.907c2.381,0,4.31-1.929,4.31-4.31 C345.643,225.175,343.714,223.246,341.333,223.246z"></path> </g> </g></svg>